<?xml version="1.0" encoding="UTF-8"?>
<svg id="Layer_2" data-name="Layer 2" xmlns="http://www.w3.org/2000/svg" viewBox="0 0 1200 669.42">
  <defs>
    <style>
      .cls-1 {
        fill: #fff;
      }

      .cls-2 {
        fill: #01a982;
      }
    </style>
  </defs>
  <g id="Layer_1-2" data-name="Layer 1">
    <g>
      <g>
        <path class="cls-1" d="M20,621.46c0-18.06,17.47-24.57,39.67-24.57h9.62v-4c0-10.36-3.55-15.54-14.06-15.54-9.33,0-13.91,4.44-14.8,12.14h-17.32c1.48-18.06,15.84-25.61,33.16-25.61s30.94,7.11,30.94,28.27v50.77h-17.61v-9.47c-5.03,6.66-11.84,10.95-23.68,10.95-14.21,0-25.9-6.81-25.9-22.94ZM69.29,615.83v-7.7h-9.18c-13.62,0-22.35,3.11-22.35,12.58,0,6.51,3.55,10.81,12.43,10.81,10.95,0,19.09-5.77,19.09-15.69Z"/>
        <path class="cls-1" d="M106.29,565.51h17.91v12.29c3.7-7.55,12.29-13.91,25.02-13.91,15.54,0,26.5,9.03,26.5,30.49v48.55h-17.91v-47.07c0-11.69-4.74-17.02-15.39-17.02-9.92,0-18.21,6.22-18.21,18.5v45.59h-17.91v-77.42Z"/>
        <path class="cls-1" d="M230.03,537.08h19.84v45h47.37v-45h19.84v105.84h-19.84v-45h-47.37v45h-19.84v-105.84Z"/>
        <path class="cls-1" d="M339.71,537.08h34.05c23.68,0,39.08,10.51,39.08,32.71v.59c0,22.35-15.99,32.42-38.63,32.42h-14.8v40.11h-19.69v-105.84ZM373.76,588.45c13.03,0,19.98-6.37,19.98-18.06v-.59c0-12.58-7.55-17.47-19.98-17.47h-14.36v36.12h14.36Z"/>
        <path class="cls-1" d="M428.37,537.08h66.17v15.54h-46.48v29.01h37.3v14.95h-37.3v30.79h49v15.54h-68.68v-105.84Z"/>
        <path class="cls-1" d="M540.42,605.03v-1.18c0-24.42,17.47-39.97,39.08-39.97,17.17,0,33.31,7.7,35.23,29.01h-17.02c-1.78-10.36-8.44-14.65-17.91-14.65-12.29,0-21.02,9.33-21.02,25.61v1.18c0,16.73,8.44,25.61,21.46,25.61,9.47,0,17.47-5.62,18.65-16.58h16.28c-1.18,17.76-14.51,30.35-35.67,30.35-22.2,0-39.08-14.51-39.08-39.38Z"/>
        <path class="cls-1" d="M624.05,605.03v-1.18c0-23.98,17.02-39.97,39.82-39.97s39.67,15.84,39.67,39.52v1.18c0,24.13-17.02,39.82-39.82,39.82s-39.67-15.84-39.67-39.38ZM685.18,604.88v-1.18c0-15.99-7.99-25.76-21.32-25.76s-21.46,9.62-21.46,25.61v1.18c0,15.84,7.99,25.76,21.46,25.76s21.32-10.07,21.32-25.61Z"/>
        <path class="cls-1" d="M718.19,565.51h17.91v11.84c3.7-7.25,11.99-13.47,23.54-13.47,10.07,0,18.06,4.29,21.91,13.91,5.92-9.77,16.58-13.91,26.2-13.91,14.21,0,25.76,8.73,25.76,30.05v49h-17.91v-47.81c0-11.4-5.03-16.28-13.77-16.28s-17.17,5.92-17.17,17.76v46.33h-17.76v-47.81c0-11.4-4.89-16.28-13.77-16.28s-17.02,5.92-17.02,17.76v46.33h-17.91v-77.42Z"/>
        <path class="cls-1" d="M852.59,565.51h17.91v12.43c4.44-7.55,13.91-14.06,25.31-14.06,19.39,0,34.19,14.36,34.19,39.38v1.18c0,24.87-14.21,39.97-34.19,39.97-12.43,0-21.17-5.92-25.31-13.62v38.63h-17.91v-103.91ZM911.8,604.88v-1.18c0-17.32-8.88-25.76-20.57-25.76-12.43,0-21.32,8.44-21.32,25.61v1.18c0,17.17,8.59,25.46,21.46,25.46s20.43-9.03,20.43-25.31Z"/>
        <path class="cls-1" d="M939.18,621.46c0-18.06,17.47-24.57,39.67-24.57h9.62v-4c0-10.36-3.55-15.54-14.06-15.54-9.33,0-13.91,4.44-14.8,12.14h-17.32c1.48-18.06,15.84-25.61,33.16-25.61s30.94,7.11,30.94,28.27v50.77h-17.62v-9.47c-5.03,6.66-11.84,10.95-23.68,10.95-14.21,0-25.9-6.81-25.9-22.94ZM988.47,615.83v-7.7h-9.18c-13.62,0-22.35,3.11-22.35,12.58,0,6.51,3.55,10.81,12.43,10.81,10.95,0,19.1-5.77,19.1-15.69Z"/>
        <path class="cls-1" d="M1025.47,565.51h17.91v12.29c3.7-7.55,12.29-13.91,25.02-13.91,15.54,0,26.5,9.03,26.5,30.49v48.55h-17.91v-47.07c0-11.69-4.74-17.02-15.4-17.02-9.92,0-18.21,6.22-18.21,18.5v45.59h-17.91v-77.42Z"/>
        <path class="cls-1" d="M1134.26,634.93l-30.64-69.42h19.39l20.57,49.88,18.8-49.88h17.61l-42.19,103.91h-17.47l13.91-34.49Z"/>
      </g>
      <g>
        <path class="cls-2" d="M0,218.98v-4.7C0,86.89,88.65,0,208.42,0c100.98,0,176.13,48.73,186.11,152.64h-97.46c-7.05-50.49-35.23-77.5-88.06-77.5-66.34,0-108.61,51.66-108.61,138.55v4.7c0,86.89,39.92,137.97,109.2,137.97,52.25,0,88.65-27.01,96.28-81.02h93.35c-10.57,103.92-85.13,157.34-188.46,157.34C73.39,432.69,0,347.56,0,218.98Z"/>
        <path class="cls-2" d="M466.73,6.46h137.38c147.36,0,220.16,79.84,220.16,205.48v4.7c0,125.64-73.39,209.59-221.33,209.59h-136.21V6.46ZM600.58,352.25c84.54,0,124.46-47.55,124.46-134.44v-4.7c0-86.3-36.99-132.68-125.64-132.68h-37.57v271.82h38.75Z"/>
        <path class="cls-2" d="M866.53,294.72h91c4.11,37.57,19.96,68.69,82.19,68.69,41.68,0,69.28-22.9,69.28-55.77s-17.61-45.21-79.26-54.6c-107.44-14.09-151.47-46.38-151.47-127.4,0-71.63,59.88-125.05,152.64-125.05s149.71,42.27,157.34,125.64h-87.48c-5.87-38.16-28.18-55.77-69.86-55.77s-62.82,19.37-62.82,47.55c0,29.94,13.5,44.03,78.08,53.43,101.57,12.92,153.82,40.51,153.82,127.4,0,74.56-61.06,133.86-160.28,133.86-115.07,0-167.91-54.01-173.19-137.97Z"/>
      </g>
    </g>
  </g>
</svg>