<?xml version="1.0" encoding="UTF-8"?>
<svg id="Capa_1" data-name="Capa 1" xmlns="http://www.w3.org/2000/svg" viewBox="0 0 751.62 240.56">
  <defs>
    <style>
      .cls-1 {
        fill: #fff;
      }

      .cls-2 {
        fill: #01a982;
      }
    </style>
  </defs>
  <g>
    <g>
      <path class="cls-1" d="M429.63,105.28c0-6.59,6.37-8.96,14.47-8.96h3.51v-1.46c0-3.78-1.3-5.67-5.13-5.67-3.4,0-5.08,1.62-5.4,4.43h-6.32c.54-6.59,5.78-9.34,12.1-9.34s11.29,2.59,11.29,10.31v18.52h-6.43v-3.46c-1.84,2.43-4.32,4-8.64,4-5.18,0-9.45-2.48-9.45-8.37ZM447.62,103.23v-2.81h-3.35c-4.97,0-8.15,1.13-8.15,4.59,0,2.38,1.3,3.94,4.54,3.94,4,0,6.97-2.11,6.97-5.72Z"/>
      <path class="cls-1" d="M463,84.87h6.53v4.48c1.35-2.75,4.48-5.08,9.13-5.08,5.67,0,9.67,3.29,9.67,11.12v17.71h-6.53v-17.17c0-4.27-1.73-6.21-5.62-6.21-3.62,0-6.64,2.27-6.64,6.75v16.63h-6.53v-28.24Z"/>
      <path class="cls-1" d="M511.93,74.5h7.24v16.42h17.28v-16.42h7.24v38.61h-7.24v-16.42h-17.28v16.42h-7.24v-38.61Z"/>
      <path class="cls-1" d="M553.83,74.5h12.42c8.64,0,14.26,3.83,14.26,11.93v.22c0,8.15-5.83,11.83-14.09,11.83h-5.4v14.63h-7.18v-38.61ZM566.25,93.24c4.75,0,7.29-2.32,7.29-6.59v-.22c0-4.59-2.75-6.37-7.29-6.37h-5.24v13.18h5.24Z"/>
      <path class="cls-1" d="M588.07,74.5h24.14v5.67h-16.96v10.58h13.61v5.45h-13.61v11.23h17.87v5.67h-25.06v-38.61Z"/>
    </g>
    <g>
      <path class="cls-1" d="M429.63,159.29v-.43c0-8.91,6.37-14.58,14.26-14.58,6.26,0,12.15,2.81,12.85,10.58h-6.21c-.65-3.78-3.08-5.35-6.53-5.35-4.48,0-7.67,3.4-7.67,9.34v.43c0,6.1,3.08,9.34,7.83,9.34,3.46,0,6.37-2.05,6.8-6.05h5.94c-.43,6.48-5.29,11.07-13.01,11.07-8.1,0-14.26-5.29-14.26-14.36Z"/>
      <path class="cls-1" d="M461.76,159.29v-.43c0-8.75,6.21-14.58,14.53-14.58s14.47,5.78,14.47,14.42v.43c0,8.8-6.21,14.53-14.53,14.53s-14.47-5.78-14.47-14.36ZM484.07,159.23v-.43c0-5.83-2.92-9.4-7.78-9.4s-7.83,3.51-7.83,9.34v.43c0,5.78,2.92,9.4,7.83,9.4s7.78-3.67,7.78-9.34Z"/>
      <path class="cls-1" d="M497.73,144.87h6.53v4.32c1.35-2.65,4.37-4.91,8.59-4.91,3.67,0,6.59,1.57,7.99,5.08,2.16-3.56,6.05-5.08,9.56-5.08,5.18,0,9.4,3.19,9.4,10.96v17.87h-6.53v-17.44c0-4.16-1.84-5.94-5.02-5.94s-6.26,2.16-6.26,6.48v16.9h-6.48v-17.44c0-4.16-1.78-5.94-5.02-5.94s-6.21,2.16-6.21,6.48v16.9h-6.53v-28.24Z"/>
      <path class="cls-1" d="M548.38,144.87h6.53v4.54c1.62-2.75,5.08-5.13,9.23-5.13,7.07,0,12.47,5.24,12.47,14.36v.43c0,9.07-5.18,14.58-12.47,14.58-4.54,0-7.72-2.16-9.23-4.97v14.09h-6.53v-37.91ZM569.98,159.23v-.43c0-6.32-3.24-9.4-7.51-9.4-4.54,0-7.78,3.08-7.78,9.34v.43c0,6.26,3.13,9.29,7.83,9.29s7.45-3.29,7.45-9.23Z"/>
      <path class="cls-1" d="M581.59,165.28c0-6.59,6.37-8.96,14.47-8.96h3.51v-1.46c0-3.78-1.3-5.67-5.13-5.67-3.4,0-5.08,1.62-5.4,4.43h-6.32c.54-6.59,5.78-9.34,12.1-9.34s11.29,2.59,11.29,10.31v18.52h-6.43v-3.46c-1.84,2.43-4.32,4-8.64,4-5.18,0-9.45-2.48-9.45-8.37ZM599.57,163.23v-2.81h-3.35c-4.97,0-8.15,1.13-8.15,4.59,0,2.38,1.3,3.94,4.54,3.94,4,0,6.97-2.11,6.97-5.72Z"/>
      <path class="cls-1" d="M614.69,144.87h6.53v4.48c1.35-2.75,4.48-5.08,9.13-5.08,5.67,0,9.67,3.29,9.67,11.12v17.71h-6.53v-17.17c0-4.27-1.73-6.21-5.62-6.21-3.62,0-6.64,2.27-6.64,6.75v16.63h-6.53v-28.24Z"/>
      <path class="cls-1" d="M656,170.19l-11.18-25.33h7.07l7.51,18.2,6.86-18.2h6.43l-15.39,37.91h-6.37l5.08-12.58Z"/>
    </g>
  </g>
  <g>
    <path class="cls-2" d="M62.36,126.66v-1.29c0-34.92,24.55-58.73,57.71-58.73,27.96,0,48.77,13.36,51.53,41.84h-26.98c-1.95-13.84-9.75-21.24-24.38-21.24-18.37,0-30.07,14.16-30.07,37.97v1.29c0,23.81,11.05,37.81,30.23,37.81,14.47,0,24.55-7.4,26.66-22.2h25.85c-2.93,28.48-23.57,43.12-52.18,43.12-38.04,0-58.36-23.33-58.36-58.57Z"/>
    <path class="cls-2" d="M191.59,68.41h38.04c40.8,0,60.96,21.88,60.96,56.32v1.29c0,34.43-20.32,57.44-61.28,57.44h-37.71v-115.05ZM228.65,163.19c23.41,0,34.46-13.03,34.46-36.85v-1.29c0-23.65-10.24-36.36-34.79-36.36h-10.4v74.5h10.73Z"/>
    <path class="cls-2" d="M302.29,147.42h25.2c1.14,10.3,5.53,18.83,22.76,18.83,11.54,0,19.18-6.28,19.18-15.29s-4.88-12.39-21.94-14.96c-29.75-3.86-41.94-12.71-41.94-34.92,0-19.63,16.58-34.27,42.26-34.27s41.45,11.59,43.56,34.43h-24.22c-1.63-10.46-7.8-15.29-19.34-15.29s-17.39,5.31-17.39,13.03c0,8.21,3.74,12.07,21.62,14.64,28.12,3.54,42.59,11.1,42.59,34.92,0,20.44-16.91,36.69-44.38,36.69-31.86,0-46.49-14.8-47.95-37.81Z"/>
  </g>
</svg>